<svg xmlns="http://www.w3.org/2000/svg" version="1.1" xmlns:xlink="http://www.w3.org/1999/xlink" xmlns:svgjs="http://svgjs.dev/svgjs" width="1000" height="325" viewBox="0 0 1000 325"><g transform="matrix(1,0,0,1,-0.6060606016775409,0.49658103606626014)"><svg viewBox="0 0 396 129" data-background-color="#ffffff" preserveAspectRatio="xMidYMid meet" height="325" width="1000" xmlns="http://www.w3.org/2000/svg" xmlns:xlink="http://www.w3.org/1999/xlink"><g id="tight-bounds" transform="matrix(1,0,0,1,0.24000000173577973,-0.19710180707193103)"><svg viewBox="0 0 395.52 129.39420494699644" height="129.39420494699644" width="395.52"><g><svg viewBox="0 0 395.52 129.39420494699644" height="129.39420494699644" width="395.52"><g><svg viewBox="0 0 395.52 129.39420494699644" height="129.39420494699644" width="395.52"><g id="textblocktransform"><svg viewBox="0 0 395.52 129.39420494699644" height="129.39420494699644" width="395.52" id="textblock"><g><svg viewBox="0 0 395.52 129.39420494699644" height="129.39420494699644" width="395.52"><g transform="matrix(1,0,0,1,0,0)"><svg width="395.52" viewBox="0.2800000011920929 -30.959999084472656 135.82000732421875 44.439998626708984" height="129.39420494699644" data-palette-color="#35185a"><path d="M1.76-19.12L1.76-19.12Q0.28-19.12 0.28-21.2 0.28-23.28 2.44-25.84L2.44-25.84Q6.04-30.16 12.44-30.84L12.44-30.84 14.64-30.96Q21.92-30.96 25.2-25.16L25.2-25.16Q27.16-21.6 27.16-16.96L27.16-16.96Q27.16-15.04 26.84-12.92L26.84-12.92Q25.68-5.8 21.32-0.84L21.32-0.84Q16.52 4.64 10.14 4.64 3.76 4.64 2.04 1.08L2.04 1.08Q1.52-0.04 1.52-1.3 1.52-2.56 2.2-3.96L2.2-3.96Q3.52-6.52 5.8-6.52L5.8-6.52Q6-6.52 6.06-6.3 6.12-6.08 6.02-5.84 5.92-5.6 5.72-5.6L5.72-5.6Q4.36-5.6 3.36-3.84L3.36-3.84Q2.72-2.6 2.72-1.56 2.72-0.52 3.12 0.36L3.12 0.36Q4.4 3.08 9.24 3.08L9.24 3.08Q14.72 3.08 19.16-2.52L19.16-2.52Q23.16-7.56 24.32-14.36L24.32-14.36Q24.72-16.56 24.72-18.52L24.72-18.52Q24.72-22.88 22.76-25.88L22.76-25.88Q20.16-29.92 14.6-29.92L14.6-29.92Q7.64-29.92 4.16-25.24L4.16-25.24Q2.4-22.84 2.4-20.76L2.4-20.76Q2.4-19.92 2.76-19.92L2.76-19.92Q2.52-19.12 1.76-19.12ZM7.52-3.96L7.52-3.96Q7.52-10.04 8.6-15.78 9.68-21.52 11.26-24.86 12.84-28.2 14.32-28.2L14.32-28.2Q14.96-28.2 14.96-27.56L14.96-27.56Q13.16-23.84 11.8-17.64L11.8-17.64Q9.28-6.32 9.28-1.28L9.28-1.28Q9.28-0.76 8.72-0.76L8.72-0.76Q7.52-0.76 7.52-3.96ZM42.72-11.48L42.72-11.48Q41.2-11.48 41.2-14.8L41.2-14.8Q41.2-16.68 41.92-18.32L41.92-18.32Q39.2-15.96 35.84-9.54 32.48-3.12 32.48-1.16L32.48-1.16Q32.48-0.68 31.84-0.68L31.84-0.68Q30.68-0.68 30.68-3.84L30.68-3.84Q30.68-9.8 31.88-14.64 33.08-19.48 34.8-19.48L34.8-19.48Q35.56-19.48 35.56-18.6L35.56-18.6Q33.72-12.76 32.92-6.64L32.92-6.64 33.2-6.64Q36.44-14.12 40.36-18.32L40.36-18.32Q42.6-20.72 44.44-20.72L44.44-20.72Q44.84-20.72 45.1-20.48 45.36-20.24 45.36-19.88L45.36-19.88Q45.08-19.6 44.68-19.04 44.28-18.48 43.6-16.38 42.92-14.28 42.92-11.8L42.92-11.8Q42.92-11.48 42.72-11.48ZM46.35-3.4L46.35-3.4Q46.35-9.32 47.57-13.96 48.79-18.6 50.67-18.6L50.67-18.6Q51.59-18.6 51.59-17.6L51.59-17.6Q51.2-16.56 50.59-14.84 49.99-13.12 49.02-8.62 48.03-4.12 48.03-0.6L48.03-0.6Q48.03-0.04 47.43-0.04L47.43-0.04Q46.35-0.04 46.35-3.4ZM52.2-23.04L51.71-22.36Q50.88-22.36 50.88-23.96L50.88-23.96Q50.88-24.92 51.39-25.98 51.91-27.04 52.88-27.04L52.88-27.04Q53.67-27.04 53.67-26.12L53.67-26.12Q53.67-25.2 52.2-23.04L52.2-23.04ZM61.59-3.68L61.59-3.68Q61.59-1.28 62.87-1.28L62.87-1.28Q64.51-1.28 66.47-5.68L66.47-5.68Q68.75-10.72 68.75-15.12L68.75-15.12Q68.75-18.12 67.17-18.12 65.59-18.12 63.71-15.68 61.83-13.24 60.37-10.02 58.91-6.8 57.87-3.94 56.83-1.08 56.61 0.3 56.39 1.68 56.27 2.38 56.15 3.08 55.89 4.6 55.63 6.12 55.41 6.92 55.19 7.72 54.83 8.94 54.47 10.16 54.09 10.82 53.71 11.48 53.23 12.16L53.23 12.16Q52.27 13.48 50.79 13.48L50.79 13.48Q48.87 13.48 48.87 11.28L48.87 11.28Q48.87 7.36 54.87-3.48L54.87-3.48Q55.47-7.88 56.11-10.6L56.11-10.6Q57.51-17.04 59.09-20.58 60.67-24.12 61.95-24.12L61.95-24.12Q62.59-24.12 62.59-23.36L62.59-23.36Q60.67-18.28 58.63-10.48L58.63-10.48 58.39-9.56 58.91-9.56Q63.47-19.48 67.51-19.48L67.51-19.48Q71.27-19.48 71.27-13.52L71.27-13.52Q71.27-9.2 69.07-4.88L69.07-4.88Q66.63 0 63.23 0L63.23 0Q60.47 0 60.47-3.6L60.47-3.6Q60.47-5.52 61.53-8.02 62.59-10.52 64.31-11.72L64.31-11.72Q64.67-11.92 64.91-11.56L64.91-11.56Q64.95-11.36 64.87-11.28L64.87-11.28Q63.35-10.08 62.47-7.76 61.59-5.44 61.59-3.68ZM49.95 10.92L49.95 10.92Q49.95 12.12 50.83 12.12L50.83 12.12Q52.63 12.12 53.51 7.24L53.51 7.24Q53.83 5.56 54.63-1.24L54.63-1.24Q50.99 5.8 50.11 9.68L50.11 9.68Q49.95 10.4 49.95 10.92ZM80.95-3.68L80.95-3.68Q80.95-1.28 82.23-1.28L82.23-1.28Q83.87-1.28 85.83-5.68L85.83-5.68Q88.11-10.72 88.11-15.12L88.11-15.12Q88.11-18.12 86.53-18.12 84.95-18.12 83.07-15.68 81.19-13.24 79.73-10.02 78.27-6.8 77.23-3.94 76.19-1.08 75.97 0.3 75.75 1.68 75.63 2.38 75.51 3.08 75.25 4.6 74.99 6.12 74.77 6.92 74.55 7.72 74.19 8.94 73.83 10.16 73.45 10.82 73.07 11.48 72.59 12.16L72.59 12.16Q71.63 13.48 70.15 13.48L70.15 13.48Q68.23 13.48 68.23 11.28L68.23 11.28Q68.23 7.36 74.23-3.48L74.23-3.48Q74.83-7.88 75.47-10.6L75.47-10.6Q76.87-17.04 78.45-20.58 80.03-24.12 81.31-24.12L81.31-24.12Q81.95-24.12 81.95-23.36L81.95-23.36Q80.03-18.28 77.99-10.48L77.99-10.48 77.75-9.56 78.27-9.56Q82.83-19.48 86.87-19.48L86.87-19.48Q90.63-19.48 90.63-13.52L90.63-13.52Q90.63-9.2 88.43-4.88L88.43-4.88Q85.99 0 82.59 0L82.59 0Q79.83 0 79.83-3.6L79.83-3.6Q79.83-5.52 80.89-8.02 81.95-10.52 83.67-11.72L83.67-11.72Q84.03-11.92 84.27-11.56L84.27-11.56Q84.31-11.36 84.23-11.28L84.23-11.28Q82.71-10.08 81.83-7.76 80.95-5.44 80.95-3.68ZM69.31 10.92L69.31 10.92Q69.31 12.12 70.19 12.12L70.19 12.12Q71.99 12.12 72.87 7.24L72.87 7.24Q73.19 5.56 73.99-1.24L73.99-1.24Q70.35 5.8 69.47 9.68L69.47 9.68Q69.31 10.4 69.31 10.92ZM100.31-3.68L100.31-3.68Q100.31-1.28 101.59-1.28L101.59-1.28Q103.23-1.28 105.19-5.68L105.19-5.68Q107.47-10.72 107.47-15.12L107.47-15.12Q107.47-18.12 105.89-18.12 104.31-18.12 102.43-15.68 100.55-13.24 99.09-10.02 97.63-6.8 96.59-3.94 95.55-1.08 95.33 0.3 95.11 1.68 94.99 2.38 94.87 3.08 94.61 4.6 94.35 6.12 94.13 6.92 93.91 7.72 93.55 8.94 93.19 10.16 92.81 10.82 92.43 11.48 91.95 12.16L91.95 12.16Q90.99 13.48 89.51 13.48L89.51 13.48Q87.59 13.48 87.59 11.28L87.59 11.28Q87.59 7.36 93.59-3.48L93.59-3.48Q94.19-7.88 94.83-10.6L94.83-10.6Q96.23-17.04 97.81-20.58 99.39-24.12 100.67-24.12L100.67-24.12Q101.31-24.12 101.31-23.36L101.31-23.36Q99.39-18.28 97.35-10.48L97.35-10.48 97.11-9.56 97.63-9.56Q102.19-19.48 106.23-19.48L106.23-19.48Q109.99-19.48 109.99-13.52L109.99-13.52Q109.99-9.2 107.79-4.88L107.79-4.88Q105.35 0 101.95 0L101.95 0Q99.19 0 99.19-3.6L99.19-3.6Q99.19-5.52 100.25-8.02 101.31-10.52 103.03-11.72L103.03-11.72Q103.39-11.92 103.63-11.56L103.63-11.56Q103.67-11.36 103.59-11.28L103.59-11.28Q102.07-10.08 101.19-7.76 100.31-5.44 100.31-3.68ZM88.67 10.92L88.67 10.92Q88.67 12.12 89.55 12.12L89.55 12.12Q91.35 12.12 92.23 7.24L92.23 7.24Q92.55 5.56 93.35-1.24L93.35-1.24Q89.71 5.8 88.83 9.68L88.83 9.68Q88.67 10.4 88.67 10.92ZM117.98 5.84L117.98 5.84Q115.67 5.84 114.56 3.4 113.47 0.96 113.47-3.92 113.47-8.8 114.91-15.48 116.34-22.16 118.28-26.56 120.23-30.96 121.67-30.96L121.67-30.96Q122.34-30.96 122.34-30.16L122.34-30.16Q121.51-28.24 120.23-24.38 118.95-20.52 118.09-17.24 117.23-13.96 116.53-9.56 115.83-5.16 115.83-2.02 115.83 1.12 116.45 2.82 117.06 4.52 118.15 4.52L118.15 4.52Q119.06 4.52 119.91 3.66 120.75 2.8 121.11 1.96L121.11 1.96Q121.31 1.52 121.83 1.72L121.83 1.72Q122.03 1.8 121.93 2.06 121.83 2.32 121.61 2.72 121.39 3.12 120.83 3.96L120.83 3.96Q119.63 5.84 117.98 5.84ZM133.06-19.4L133.06-19.4Q136.1-19.4 136.1-15.84L136.1-15.84Q136.1-13.8 134.74-11.56L134.74-11.56Q132.42-7.84 128.58-7.84L128.58-7.84Q127.98-7.84 127.58-8.04 127.18-8.24 126.98-8.64L126.98-8.64Q129.82-8.64 132.18-11.92L132.18-11.92Q134.1-14.56 134.1-16.76L134.1-16.76Q134.1-18.4 132.78-18.4L132.78-18.4Q130.14-18.4 127.86-14.28L127.86-14.28Q125.42-9.8 125.42-5.08L125.42-5.08Q125.42-1.08 127.7-0.28L127.7-0.28Q128.14-0.12 128.82-0.12 129.5-0.12 130.26-0.46 131.02-0.8 131.54-1.28L131.54-1.28Q132.58-2.24 133.26-3.4L133.26-3.4Q133.42-3.72 133.86-3.72L133.86-3.72Q134.58-3.72 134.54-3.48L134.54-3.48Q134.42-3.04 133.64-2 132.86-0.96 132.2-0.34 131.54 0.28 130.48 0.78 129.42 1.28 128.34 1.28L128.34 1.28Q124.1 1.28 122.94-2.72L122.94-2.72Q122.58-4.08 122.58-5.52L122.58-5.52Q122.58-8.2 123.82-11.36L123.82-11.36Q125.78-16.16 129.22-18.28L129.22-18.28Q131.1-19.4 133.06-19.4Z" opacity="1" transform="matrix(1,0,0,1,0,0)" fill="#35185a" class="wordmark-text-0" data-fill-palette-color="primary" id="text-0"></path></svg></g></svg></g></svg></g></svg></g></svg></g><defs></defs></svg><rect width="395.52" height="129.39420494699644" fill="none" stroke="none" visibility="hidden"></rect></g></svg></g></svg>